# This file uses centimeters as units for non-parametric coordinates.

mtllib arrow.mtl
g default
v -0.012156 0.109712 0.109712
v 1.583074 0.109712 0.109712
v 1.630274 0.213184 0.213184
v 2.056641 0.045166 0.045166
v -0.012156 0.109712 -0.109712
v 1.583074 0.109712 -0.109712
v 1.630274 0.213184 -0.213184
v 2.056641 0.045166 -0.045166
vt 0.998008 0.520379
vt 0.935582 0.457954
vt 0.818767 0.259156
vt 0.717401 0.157790
vt 0.421212 0.964342
vt 0.553592 0.964342
vt 0.421212 0.001925
vt 0.553592 0.001925
vt 0.740777 0.520379
vt 0.803202 0.457954
vt 0.818767 0.001925
vt 0.717401 0.103292
vn 0.000000 1.000000 0.000000
vn 0.000000 1.000000 0.000000
vn 0.000000 1.000000 0.000000
vn -0.540825 0.841135 0.000000
vn -0.374378 0.927276 0.000000
vn -0.374378 0.927276 0.000000
vn -0.540825 0.841135 0.000000
vn -0.540825 0.841135 0.000000
vn -0.374378 0.927276 0.000000
vn -0.540826 0.841135 0.000000
vn -0.374378 0.927276 0.000000
vn 0.366628 0.930368 0.000000
vn -0.374378 0.927276 0.000000
vn 0.366628 0.930368 0.000000
vn 0.366629 0.930367 0.000000
vn -0.374378 0.927276 0.000000
s off
g pCube1
usemtl arrow_initialShadingGroup
f 6/8/1 5/6/2 1/5/3 2/7/4
f 3/1/5 7/9/6 2/2/7
f 2/2/8 7/9/9 6/10/10
f 3/3/11 4/4/12 7/11/13
f 4/4/14 8/12/15 7/11/16
