# This file uses centimeters as units for non-parametric coordinates.

mtllib bplane.mtl
g default
v -2.500000 -0.000000 2.500000
v 0.000000 -0.000000 2.500000
v 2.500000 -0.000000 2.500000
v -2.500000 0.000000 0.000000
v 0.000000 0.000000 0.000000
v 2.500000 0.000000 0.000000
v -2.500000 0.000000 -2.500000
v 0.000000 0.000000 -2.500000
v 2.500000 0.000000 -2.500000
vt 0.000000 0.000000
vt 0.500000 0.000000
vt 1.000000 0.000000
vt 0.000000 0.500000
vt 0.500000 0.500000
vt 1.000000 0.500000
vt 0.000000 1.000000
vt 0.500000 1.000000
vt 1.000000 1.000000
vn 0.000000 1.000000 0.000000
vn 0.000000 1.000000 0.000000
vn 0.000000 1.000000 0.000000
vn 0.000000 1.000000 0.000000
vn 0.000000 1.000000 0.000000
vn 0.000000 1.000000 0.000000
vn 0.000000 1.000000 0.000000
vn 0.000000 1.000000 0.000000
vn 0.000000 1.000000 0.000000
s 1
g pPlane1
usemtl initialShadingGroup
f 1/1/1 2/2/2 4/4/3
f 4/4/3 2/2/2 5/5/4
f 2/2/2 3/3/5 5/5/4
f 5/5/4 3/3/5 6/6/6
f 4/4/3 5/5/4 7/7/7
f 7/7/7 5/5/4 8/8/8
f 5/5/4 6/6/6 8/8/8
f 8/8/8 6/6/6 9/9/9
